<svg xmlns="http://www.w3.org/2000/svg" xmlns:xlink="http://www.w3.org/1999/xlink" fill="none" version="1.1" width="233.5" height="147.5629425048828" viewBox="0 0 233.5 147.5629425048828"><g style="mix-blend-mode:passthrough"><g style="mix-blend-mode:passthrough"><path d="M108.416,147.46336120605469L0,129.07036120605468L0,0.056391206054687504L108.584,18.477661206054687L108.5,18.970661206054686L108.5,18.470661206054686L125,18.470661206054686L125,35.470661206054686L108.457,35.470661206054686L16.8199,19.569261206054687L16.9054,19.076661206054688L17.4054,19.076661206054688L17.4054,115.07636120605468L16.9054,115.07636120605468L16.9909,114.5843612060547L108.585,130.4783612060547L108.5,130.9703612060547L108,130.9703612060547L108,90.97996120605468L108.5,90.97996120605468L108.412,91.4721612060547L60.5,82.89846120605469L60.5,65.87326120605469L108.588,74.47846120605469L108.5,74.97066120605469L108.5,74.47066120605469L125,74.47066120605469L125,130.9703612060547L125,147.4703612060547L108.458,147.4703612060547L108.416,147.46336120605469ZM108.584,146.4773612060547L108.5,146.9703612060547L108.5,146.4703612060547L124.5,146.4703612060547L124.5,146.9703612060547L124,146.9703612060547L124,130.9703612060547L124,74.97066120605469L124.5,74.97066120605469L124.5,75.47066120605469L108.456,75.47066120605469L60.9119,66.96286120605468L61,66.47066120605469L61.5,66.47066120605469L61.5,82.47996120605468L61,82.47996120605468L61.0881,81.98776120605469L109,90.56146120605469L109,131.5653612060547L16.4054,115.49736120605469L16.4054,18.482361206054687L108.585,34.47806120605469L108.5,34.970661206054686L108.5,34.470661206054686L124.5,34.470661206054686L124.5,34.970661206054686L124,34.970661206054686L124,18.970661206054686L124.5,18.970661206054686L124.5,19.470661206054686L108.458,19.470661206054686L0.4163695,1.1413172060546874L0.5,0.6483612060546875L1,0.6483612060546875L1,128.6483612060547L0.5,128.6483612060547L0.5836304999999999,128.1553612060547L108.584,146.4773612060547Z" fill="#000000" fill-opacity="1"/></g><g style="mix-blend-mode:passthrough"><path d="M124.5,18.5486L124.5,147.563L233.5,129.014L233.5,-0.00000303984L124.5,18.5486ZM125.5,146.378L232.5,128.17L232.5,1.18454L125.5,19.3928L125.5,146.378ZM217.5,118.42L217.5,21.4051L216.9159,21.5048L140.5,34.5488L140.5,131.563L217.5,118.42ZM216.5,22.5903L216.5,117.576L141.5,130.378L141.5,35.3925L216.5,22.5903Z" fill-rule="evenodd" fill="#000000" fill-opacity="1"/></g></g></svg>